<svg viewBox="0 0 20 20" xmlns="http://www.w3.org/2000/svg"><path d="M14.65 7.15a.5.5 0 0 1 .7 0l2.5 2.5a.5.5 0 0 1 0 .7l-2.5 2.5a.5.5 0 0 1-.7-.7l1.64-1.65H9a.5.5 0 0 1 0-1h7.3l-1.65-1.65a.5.5 0 0 1 0-.7zM3.48 3.48c-.3.3-.48.68-.48 1.02v11c0 .34.17.72.48 1.02.3.3.68.48 1.02.48H7v-4H4.5a.5.5 0 0 1-.5-.5v-5a.5.5 0 0 1 .5-.5H7V3H4.5c-.34 0-.72.17-1.02.48zM7.5 2a.5.5 0 0 1 .5.5v5a.5.5 0 0 1-.5.5H5v4h2.5a.5.5 0 0 1 .5.5v5a.5.5 0 0 1-.5.5h-3a2.5 2.5 0 0 1-1.73-.77A2.5 2.5 0 0 1 2 15.5v-11c0-.66.33-1.28.77-1.73A2.5 2.5 0 0 1 4.5 2h3z"/></svg>