<svg viewBox="0 0 32 33" xmlns="http://www.w3.org/2000/svg"><path d="M13 .99c-1.8 0-3.2 1.5-3.2 3.4s1.4 3.4 3.2 3.4 3.2-1.5 3.2-3.4S14.8.99 13 .99zm0 1.3c1.1 0 1.9.93 1.9 2.1 0 1.1-.87 2.1-1.9 2.1-1.1 0-1.9-.93-1.9-2.1 0-1.1.86-2.1 1.9-2.1zm-12 26c0 1.3.45 2.4 1.5 3.3 1.1.94 2.4.86 2.4.86h21c.86 0 2-.42 2.9-1.6.93-1.1.87-2.6.87-2.6v-19c0-.48-.12-.66-.82-.66s-.76.3-.76.65v19c-.02.33-.08 1.2-.82 1.9-.81.69-1.6.6-1.6.6s-20 0-21-.03c-.38-.07-1-.21-1.6-1-.56-.8-.45-1.8-.45-1.8v-19c0-.51-.26-.7-.8-.7S1 8.4 1 8.85zm18-18c-1.2.26-2.4.42-4.7 2.6-2.3 2.2-4 2.1-5.7 2s-3.5-1.7-3.8-2.1c-.37-.39-1-.13-1.2.13-.17.26-.17.71.12 1.1 1.4 1.3 2.7 2.3 5.2 2.5 2.5.24 4.9-.89 6.5-2.5 1.6-1.6 2.4-1.9 3.6-2.1 2.9-.46 4.6.68 5.6 1.4 1.1 1.2 1.4.86 1.7.52.6-.79-.25-1.4-1.2-2.1-2-1.3-3.9-1.8-6.1-1.4zm-10 7.9c-1.3 0-2.3 1.1-2.3 2.5s1 2.5 2.3 2.5 2.3-1.1 2.3-2.5-1-2.5-2.3-2.5zm13 .86c-1.7 0-3.1 1.5-3.1 3.3s1.4 3.3 3.1 3.3 3.1-1.5 3.1-3.3-1.4-3.3-3.1-3.3zm0 1.6c.88 0 1.6.77 1.6 1.7 0 .95-.72 1.7-1.6 1.7s-1.6-.77-1.6-1.7c0-.95.72-1.7 1.6-1.7z" fill="#fff"/></svg>